<?xml version="1.0" encoding="utf-8"?>
<svg viewBox="0 0 511.999 511.999" width="511.999" height="511.999" fill="#000000" xmlns="http://www.w3.org/2000/svg">
  <defs>
    <filter id="drop-shadow-filter-0" color-interpolation-filters="sRGB" x="-500%" y="-500%" width="1000%" height="1000%">
      <title>1</title>
      <feGaussianBlur in="SourceAlpha" stdDeviation="15" result="gaussian-blur-0"/>
      <feOffset dx="20" dy="0" result="offset-0" in="gaussian-blur-0"/>
      <feComponentTransfer result="offsetblur" in="offset-0">
        <feFuncA id="spread-ctrl" type="linear" slope="0.5"/>
      </feComponentTransfer>
      <feFlood flood-color="#FF3403" result="flood-0"/>
      <feComposite in2="offsetblur" operator="in" result="composite-0" in="flood-0"/>
      <feMerge result="merge-0">
        <feMergeNode in="composite-0"/>
        <feMergeNode in="SourceGraphic"/>
      </feMerge>
    </filter>
    <filter id="drop-shadow-filter-1" color-interpolation-filters="sRGB" x="-500%" y="-500%" width="1000%" height="1000%">
      <title>2</title>
      <feGaussianBlur in="SourceAlpha" stdDeviation="15"/>
      <feOffset dx="-20" dy="0"/>
      <feComponentTransfer result="offsetblur">
        <feFuncA id="spread-ctrl" type="linear" slope="0.5"/>
      </feComponentTransfer>
      <feFlood flood-color="#FF3403"/>
      <feComposite in2="offsetblur" operator="in"/>
      <feMerge>
        <feMergeNode/>
        <feMergeNode in="SourceGraphic"/>
      </feMerge>
    </filter>
    <filter id="drop-shadow-filter-2" color-interpolation-filters="sRGB" x="-500%" y="-500%" width="1000%" height="1000%">
      <title>3</title>
      <feGaussianBlur in="SourceAlpha" stdDeviation="15"/>
      <feOffset dx="0" dy="20"/>
      <feComponentTransfer result="offsetblur">
        <feFuncA id="spread-ctrl" type="linear" slope="0.5"/>
      </feComponentTransfer>
      <feFlood flood-color="#FF3403"/>
      <feComposite in2="offsetblur" operator="in"/>
      <feMerge>
        <feMergeNode/>
        <feMergeNode in="SourceGraphic"/>
      </feMerge>
    </filter>
    <filter id="drop-shadow-filter-3" color-interpolation-filters="sRGB" x="-500%" y="-500%" width="1000%" height="1000%">
      <title>4</title>
      <feGaussianBlur in="SourceAlpha" stdDeviation="15"/>
      <feOffset dx="0" dy="-20"/>
      <feComponentTransfer result="offsetblur">
        <feFuncA id="spread-ctrl" type="linear" slope="0.5"/>
      </feComponentTransfer>
      <feFlood flood-color="#FF3403"/>
      <feComposite in2="offsetblur" operator="in"/>
      <feMerge>
        <feMergeNode/>
        <feMergeNode in="SourceGraphic"/>
      </feMerge>
    </filter>
  </defs>
  <g style="filter: url(#drop-shadow-filter-0) url(#drop-shadow-filter-1) url(#drop-shadow-filter-2) url(#drop-shadow-filter-3);">
    <g>
      <path d="M507.836,244.912c-1.147-1.312-28.596-32.502-72.998-63.93c-59.487-42.105-121.329-64.362-178.84-64.362 c-57.51,0-119.352,22.256-178.839,64.362C32.758,212.41,5.308,243.6,4.162,244.912c-5.549,6.35-5.549,15.824,0,22.174 c1.147,1.312,28.596,32.502,72.998,63.931c59.487,42.105,121.329,64.362,178.839,64.362c57.511,0,119.353-22.256,178.84-64.362 c44.402-31.428,71.852-62.618,72.998-63.931C513.386,260.737,513.386,251.262,507.836,244.912z M255.998,361.679 c-63.521,0-121.363-31.375-158.701-57.696c-25.869-18.236-45.799-36.671-57.155-47.984c11.357-11.315,31.289-29.749,57.155-47.984 c37.338-26.321,95.18-57.696,158.701-57.696c63.522,0,121.364,31.375,158.702,57.696c25.863,18.232,45.792,36.663,57.15,47.979 C442.551,285.146,356.081,361.679,255.998,361.679z" style="fill: rgb(240, 197, 215);"/>
    </g>
  </g>
  <g style="filter: url(#drop-shadow-filter-0) url(#drop-shadow-filter-1) url(#drop-shadow-filter-2) url(#drop-shadow-filter-3);">
    <g>
      <path d="M255.998,214.787c-22.724,0-41.212,18.488-41.212,41.212s18.488,41.212,41.212,41.212s41.212-18.488,41.212-41.212 S278.723,214.787,255.998,214.787z M255.998,263.512c-4.143,0-7.513-3.37-7.513-7.513c0-4.143,3.37-7.513,7.513-7.513 c4.143,0,7.513,3.37,7.513,7.513C263.511,260.142,260.141,263.512,255.998,263.512z" style="fill: rgb(240, 197, 215);"/>
    </g>
  </g>
  <g style="filter: url(#drop-shadow-filter-0) url(#drop-shadow-filter-1) url(#drop-shadow-filter-2) url(#drop-shadow-filter-3);">
    <g>
      <path d="M255.998,160.758c-52.516,0-95.241,42.726-95.241,95.242s42.724,95.242,95.241,95.242S351.24,308.517,351.24,256 S308.515,160.758,255.998,160.758z M255.998,317.542c-33.934,0-61.541-27.608-61.541-61.542s27.607-61.542,61.541-61.542 s61.542,27.608,61.542,61.542S289.933,317.542,255.998,317.542z" style="fill: rgb(240, 197, 215);"/>
    </g>
  </g>
</svg>